<svg xmlns="http://www.w3.org/2000/svg" width="1200" height="630" viewBox="0 0 1200 630"><defs><linearGradient id="bgGrad" x1="0%" x2="100%" y1="0%" y2="100%"><stop offset="0%" stop-color="#0d0d16"/><stop offset="100%" stop-color="#12121e"/></linearGradient><linearGradient id="hexGrad" x1="0%" x2="100%" y1="0%" y2="100%"><stop offset="0%" stop-color="#6366f1"/><stop offset="100%" stop-color="#818cf8"/></linearGradient><linearGradient id="nodeGrad" x1="0%" x2="100%" y1="0%" y2="100%"><stop offset="0%" stop-color="#a5b4fc" stop-opacity=".9"/><stop offset="100%" stop-color="#c7d2fe" stop-opacity=".6"/></linearGradient><linearGradient id="titleGrad" x1="0%" x2="100%" y1="0%" y2="0%"><stop offset="0%" stop-color="#e2e2f0"/><stop offset="55%" stop-color="#a5b4fc"/><stop offset="100%" stop-color="#818cf8"/></linearGradient><radialGradient id="glow1" cx="50%" cy="50%" r="50%"><stop offset="0%" stop-color="#6366f1" stop-opacity=".18"/><stop offset="100%" stop-color="#6366f1" stop-opacity="0"/></radialGradient><radialGradient id="glow2" cx="50%" cy="50%" r="50%"><stop offset="0%" stop-color="#10b981" stop-opacity=".1"/><stop offset="100%" stop-color="#10b981" stop-opacity="0"/></radialGradient><filter id="blur1"><feGaussianBlur stdDeviation="40"/></filter></defs><rect width="1200" height="630" fill="url(#bgGrad)"/><ellipse cx="200" cy="200" fill="url(#glow1)" filter="url(#blur1)" rx="340" ry="280"/><ellipse cx="1050" cy="480" fill="url(#glow2)" filter="url(#blur1)" rx="280" ry="220"/><g fill="#6366f1" opacity=".07"><circle cx="80" cy="80" r="1.5"/><circle cx="160" cy="80" r="1.5"/><circle cx="240" cy="80" r="1.5"/><circle cx="320" cy="80" r="1.5"/><circle cx="80" cy="160" r="1.5"/><circle cx="160" cy="160" r="1.5"/><circle cx="240" cy="160" r="1.5"/><circle cx="320" cy="160" r="1.5"/><circle cx="80" cy="240" r="1.5"/><circle cx="160" cy="240" r="1.5"/><circle cx="240" cy="240" r="1.5"/><circle cx="320" cy="240" r="1.5"/><circle cx="900" cy="400" r="1.5"/><circle cx="980" cy="400" r="1.5"/><circle cx="1060" cy="400" r="1.5"/><circle cx="1140" cy="400" r="1.5"/><circle cx="900" cy="480" r="1.5"/><circle cx="980" cy="480" r="1.5"/><circle cx="1060" cy="480" r="1.5"/><circle cx="1140" cy="480" r="1.5"/><circle cx="900" cy="560" r="1.5"/><circle cx="980" cy="560" r="1.5"/><circle cx="1060" cy="560" r="1.5"/><circle cx="1140" cy="560" r="1.5"/></g><polygon fill="none" stroke="#6366f1" stroke-width="1" points="980 120 1120 200 1120 360 980 440 840 360 840 200" opacity=".12"/><polygon fill="none" stroke="#6366f1" stroke-width=".5" points="980 150 1095 215 1095 345 980 410 865 345 865 215" opacity=".08"/><line x1="60" x2="200" y1="560" y2="460" stroke="#6366f1" stroke-width="1" opacity=".15"/><line x1="200" x2="380" y1="460" y2="540" stroke="#6366f1" stroke-width="1" opacity=".15"/><circle cx="60" cy="560" r="3" fill="#6366f1" opacity=".3"/><circle cx="200" cy="460" r="3" fill="#6366f1" opacity=".3"/><circle cx="380" cy="540" r="3" fill="#6366f1" opacity=".3"/><g transform="translate(128, 265)"><polygon fill="url(#hexGrad)" points="64 0 112 28 112 92 64 120 16 92 16 28"/><circle cx="64" cy="60" r="11" fill="#fff" opacity=".95"/><line x1="64" x2="64" y1="49" y2="18" stroke="#fff" stroke-linecap="round" stroke-width="5" opacity=".7"/><line x1="73.5" x2="97" y1="65.5" y2="79" stroke="#fff" stroke-linecap="round" stroke-width="5" opacity=".7"/><line x1="54.5" x2="31" y1="65.5" y2="79" stroke="#fff" stroke-linecap="round" stroke-width="5" opacity=".7"/><circle cx="64" cy="14" r="7" fill="url(#nodeGrad)"/><circle cx="100" cy="80" r="7" fill="url(#nodeGrad)"/><circle cx="28" cy="80" r="7" fill="url(#nodeGrad)"/></g><text x="290" y="298" fill="url(#titleGrad)" font-family="'Inter', 'Helvetica Neue', Arial, sans-serif" font-size="72" font-weight="800" letter-spacing="-2">Agent Dashboard</text><text x="292" y="355" fill="#88a" font-family="'Inter', 'Helvetica Neue', Arial, sans-serif" font-size="26" font-weight="400">Real-time monitoring platform for Claude Code agent activity</text><line x1="290" x2="840" y1="385" y2="385" stroke="#252538" stroke-width="1"/><g font-family="'Inter', 'Helvetica Neue', Arial, sans-serif" font-size="15" font-weight="600" transform="translate(290, 408)"><rect width="88" height="28" x="0" y="0" fill="#33993320" stroke="#33993340" rx="6"/><text x="44" y="19" fill="#6dbf6d" text-anchor="middle">Node.js 18+</text><rect width="82" height="28" x="100" y="0" fill="#61dafb18" stroke="#61dafb30" rx="6"/><text x="141" y="19" fill="#61dafb" text-anchor="middle">React 18</text><rect width="100" height="28" x="194" y="0" fill="#3178c618" stroke="#3178c630" rx="6"/><text x="244" y="19" fill="#5a9fd4" text-anchor="middle">TypeScript</text><rect width="72" height="28" x="306" y="0" fill="#003b5718" stroke="#005f8a30" rx="6"/><text x="342" y="19" fill="#5bb8e0" text-anchor="middle">SQLite</text><rect width="100" height="28" x="390" y="0" fill="#10b98118" stroke="#10b98130" rx="6"/><text x="440" y="19" fill="#34d399" text-anchor="middle">WebSocket</text><rect width="62" height="28" x="502" y="0" fill="#f59e0b18" stroke="#f59e0b30" rx="6"/><text x="533" y="19" fill="#fbbf24" text-anchor="middle">MIT</text></g><text x="290" y="580" fill="#55556a" font-family="'Inter', 'Helvetica Neue', Arial, sans-serif" font-size="18" font-weight="500">github.com/hoangsonww · sonnguyenhoang.com</text></svg>